<svg id="visual" viewBox="0 0 900 600" width="900" height="600" xmlns="http://www.w3.org/2000/svg" xmlns:xlink="http://www.w3.org/1999/xlink" version="1.1"><g stroke-width="1" stroke-linejoin="bevel"><path d="M418.1 334L402.1 350L481.9 426Z" fill="#00101c" stroke="#00101c"></path><path d="M481.9 426L494.9 338L418.1 334Z" fill="#001e4a" stroke="#001e4a"></path><path d="M481.9 426L512.9 368L494.9 338Z" fill="#011f7e" stroke="#011f7e"></path><path d="M402.1 350L448.1 480L481.9 426Z" fill="#001527" stroke="#001527"></path><path d="M512.9 368L542.7 344L494.9 338Z" fill="#001e4a" stroke="#001e4a"></path><path d="M605.7 460L542.7 344L512.9 368Z" fill="#00101c" stroke="#00101c"></path><path d="M605.7 460L512.9 368L481.9 426Z" fill="#001f55" stroke="#001f55"></path><path d="M288.3 429L416.1 517L448.1 480Z" fill="#001e4a" stroke="#001e4a"></path><path d="M294.3 320L304.3 372L402.1 350Z" fill="#001527" stroke="#001527"></path><path d="M402.1 350L288.3 429L448.1 480Z" fill="#0e1d87" stroke="#0e1d87"></path><path d="M542.7 344L475.9 223L494.9 338Z" fill="#001b3f" stroke="#001b3f"></path><path d="M494.9 338L475.9 223L418.1 334Z" fill="#001833" stroke="#001833"></path><path d="M418.1 334L294.3 320L402.1 350Z" fill="#002074" stroke="#002074"></path><path d="M385.1 215L294.3 320L418.1 334Z" fill="#00206a" stroke="#00206a"></path><path d="M255.5 410L288.3 429L304.3 372Z" fill="#0e1d87" stroke="#0e1d87"></path><path d="M304.3 372L288.3 429L402.1 350Z" fill="#001527" stroke="#001527"></path><path d="M506.9 552L481.9 426L448.1 480Z" fill="#001b3f" stroke="#001b3f"></path><path d="M506.9 552L605.7 460L481.9 426Z" fill="#00206a" stroke="#00206a"></path><path d="M475.9 223L385.1 215L418.1 334Z" fill="#001527" stroke="#001527"></path><path d="M416.1 517L506.9 552L448.1 480Z" fill="#001b3f" stroke="#001b3f"></path><path d="M294.3 320L268.5 358L304.3 372Z" fill="#00206a" stroke="#00206a"></path><path d="M244.5 498L290.3 486L288.3 429Z" fill="#00206a" stroke="#00206a"></path><path d="M288.3 429L290.3 486L416.1 517Z" fill="#001e4a" stroke="#001e4a"></path><path d="M416.1 517L499.9 600L506.9 552Z" fill="#00205f" stroke="#00205f"></path><path d="M656.5 414L601.7 266L542.7 344Z" fill="#001e4a" stroke="#001e4a"></path><path d="M542.7 344L601.7 266L475.9 223Z" fill="#002074" stroke="#002074"></path><path d="M268.5 358L255.5 410L304.3 372Z" fill="#001833" stroke="#001833"></path><path d="M506.9 552L537.7 558L605.7 460Z" fill="#002074" stroke="#002074"></path><path d="M302.3 228L281.5 265L294.3 320Z" fill="#001f55" stroke="#001f55"></path><path d="M294.3 320L194.6 301L268.5 358Z" fill="#001f55" stroke="#001f55"></path><path d="M268.5 358L156.6 370L255.5 410Z" fill="#001833" stroke="#001833"></path><path d="M686.5 437L656.5 414L605.7 460Z" fill="#0e1d87" stroke="#0e1d87"></path><path d="M605.7 460L656.5 414L542.7 344Z" fill="#001833" stroke="#001833"></path><path d="M385.1 215L302.3 228L294.3 320Z" fill="#00206a" stroke="#00206a"></path><path d="M467.9 148L430.1 165L475.9 223Z" fill="#002074" stroke="#002074"></path><path d="M475.9 223L430.1 165L385.1 215Z" fill="#001e4a" stroke="#001e4a"></path><path d="M385.1 215L325.3 155L302.3 228Z" fill="#011f7e" stroke="#011f7e"></path><path d="M506.9 552L499.9 600L537.7 558Z" fill="#001f55" stroke="#001f55"></path><path d="M383.1 600L499.9 600L416.1 517Z" fill="#0e1d87" stroke="#0e1d87"></path><path d="M642.5 262L601.7 214L601.7 266Z" fill="#001f55" stroke="#001f55"></path><path d="M601.7 266L601.7 214L475.9 223Z" fill="#001b3f" stroke="#001b3f"></path><path d="M656.5 414L642.5 262L601.7 266Z" fill="#001527" stroke="#001527"></path><path d="M349.3 600L383.1 600L416.1 517Z" fill="#001b3f" stroke="#001b3f"></path><path d="M561.7 128L467.9 148L475.9 223Z" fill="#002074" stroke="#002074"></path><path d="M255.5 410L244.5 498L288.3 429Z" fill="#001b3f" stroke="#001b3f"></path><path d="M290.3 486L349.3 600L416.1 517Z" fill="#00205f" stroke="#00205f"></path><path d="M269.5 600L349.3 600L290.3 486Z" fill="#001f55" stroke="#001f55"></path><path d="M598.7 600L605.7 460L537.7 558Z" fill="#00205f" stroke="#00205f"></path><path d="M678.5 528L686.5 437L605.7 460Z" fill="#011f7e" stroke="#011f7e"></path><path d="M656.5 414L707.4 264L642.5 262Z" fill="#001833" stroke="#001833"></path><path d="M323.3 105L325.3 155L430.1 165Z" fill="#001f55" stroke="#001f55"></path><path d="M430.1 165L325.3 155L385.1 215Z" fill="#001e4a" stroke="#001e4a"></path><path d="M302.3 228L268.5 186L281.5 265Z" fill="#001b3f" stroke="#001b3f"></path><path d="M325.3 155L268.5 186L302.3 228Z" fill="#002074" stroke="#002074"></path><path d="M281.5 265L194.6 301L294.3 320Z" fill="#001e4a" stroke="#001e4a"></path><path d="M255.5 410L179.6 495L244.5 498Z" fill="#001f55" stroke="#001f55"></path><path d="M499.9 600L598.7 600L537.7 558Z" fill="#011f7e" stroke="#011f7e"></path><path d="M212.5 254L194.6 301L281.5 265Z" fill="#00206a" stroke="#00206a"></path><path d="M268.5 186L212.5 254L281.5 265Z" fill="#00205f" stroke="#00205f"></path><path d="M772.4 425L716.4 403L686.5 437Z" fill="#002074" stroke="#002074"></path><path d="M686.5 437L716.4 403L656.5 414Z" fill="#001527" stroke="#001527"></path><path d="M598.7 600L678.5 528L605.7 460Z" fill="#00206a" stroke="#00206a"></path><path d="M665.5 185L561.7 128L601.7 214Z" fill="#001833" stroke="#001833"></path><path d="M601.7 214L561.7 128L475.9 223Z" fill="#0e1d87" stroke="#0e1d87"></path><path d="M467.9 148L433.1 89L430.1 165Z" fill="#0e1d87" stroke="#0e1d87"></path><path d="M162.6 600L269.5 600L244.5 498Z" fill="#00205f" stroke="#00205f"></path><path d="M244.5 498L269.5 600L290.3 486Z" fill="#002074" stroke="#002074"></path><path d="M716.4 403L707.4 264L656.5 414Z" fill="#0e1d87" stroke="#0e1d87"></path><path d="M642.5 262L665.5 185L601.7 214Z" fill="#00205f" stroke="#00205f"></path><path d="M561.7 128L497.9 93L467.9 148Z" fill="#001f55" stroke="#001f55"></path><path d="M703.4 233L665.5 185L642.5 262Z" fill="#002074" stroke="#002074"></path><path d="M497.9 93L433.1 89L467.9 148Z" fill="#00101c" stroke="#00101c"></path><path d="M325.3 155L323.3 105L268.5 186Z" fill="#00206a" stroke="#00206a"></path><path d="M91.8 322L156.6 370L194.6 301Z" fill="#0e1d87" stroke="#0e1d87"></path><path d="M194.6 301L156.6 370L268.5 358Z" fill="#001527" stroke="#001527"></path><path d="M135.6 418L179.6 495L255.5 410Z" fill="#002074" stroke="#002074"></path><path d="M707.4 264L703.4 233L642.5 262Z" fill="#001e4a" stroke="#001e4a"></path><path d="M598.7 600L647.5 600L678.5 528Z" fill="#011f7e" stroke="#011f7e"></path><path d="M212.5 254L181.6 239L194.6 301Z" fill="#002074" stroke="#002074"></path><path d="M185.6 164L181.6 239L212.5 254Z" fill="#0e1d87" stroke="#0e1d87"></path><path d="M433.1 89L323.3 105L430.1 165Z" fill="#00205f" stroke="#00205f"></path><path d="M268.5 186L185.6 164L212.5 254Z" fill="#001833" stroke="#001833"></path><path d="M156.6 370L135.6 418L255.5 410Z" fill="#00101c" stroke="#00101c"></path><path d="M52.8 390L135.6 418L156.6 370Z" fill="#00205f" stroke="#00205f"></path><path d="M829.2 256L703.4 233L707.4 264Z" fill="#001f55" stroke="#001f55"></path><path d="M780.2 163L706.4 182L703.4 233Z" fill="#011f7e" stroke="#011f7e"></path><path d="M703.4 233L706.4 182L665.5 185Z" fill="#001b3f" stroke="#001b3f"></path><path d="M665.5 185L688.5 143L561.7 128Z" fill="#001833" stroke="#001833"></path><path d="M561.7 128L566.7 58L497.9 93Z" fill="#00205f" stroke="#00205f"></path><path d="M737.4 542L772.4 425L686.5 437Z" fill="#011f7e" stroke="#011f7e"></path><path d="M716.4 403L809.2 295L707.4 264Z" fill="#0e1d87" stroke="#0e1d87"></path><path d="M737.4 542L686.5 437L678.5 528Z" fill="#002074" stroke="#002074"></path><path d="M647.5 600L737.4 542L678.5 528Z" fill="#00205f" stroke="#00205f"></path><path d="M706.4 182L688.5 143L665.5 185Z" fill="#002074" stroke="#002074"></path><path d="M258.5 57L185.6 164L268.5 186Z" fill="#00101c" stroke="#00101c"></path><path d="M181.6 239L91.8 322L194.6 301Z" fill="#001b3f" stroke="#001b3f"></path><path d="M825.2 499L788.2 429L772.4 425Z" fill="#001f55" stroke="#001f55"></path><path d="M831.2 354L809.2 295L716.4 403Z" fill="#001b3f" stroke="#001b3f"></path><path d="M670.5 69L566.7 58L561.7 128Z" fill="#001b3f" stroke="#001b3f"></path><path d="M497.9 93L458.9 0L433.1 89Z" fill="#001b3f" stroke="#001b3f"></path><path d="M319.3 0L258.5 57L323.3 105Z" fill="#002074" stroke="#002074"></path><path d="M179.6 495L162.6 600L244.5 498Z" fill="#002074" stroke="#002074"></path><path d="M63.8 564L162.6 600L179.6 495Z" fill="#00206a" stroke="#00206a"></path><path d="M67.8 255L91.8 322L181.6 239Z" fill="#001833" stroke="#001833"></path><path d="M135.6 418L53.8 445L179.6 495Z" fill="#00205f" stroke="#00205f"></path><path d="M727.4 49L670.5 69L688.5 143Z" fill="#011f7e" stroke="#011f7e"></path><path d="M831.2 354L716.4 403L772.4 425Z" fill="#001833" stroke="#001833"></path><path d="M323.3 105L258.5 57L268.5 186Z" fill="#011f7e" stroke="#011f7e"></path><path d="M417.1 0L323.3 105L433.1 89Z" fill="#001527" stroke="#001527"></path><path d="M566.7 58L458.9 0L497.9 93Z" fill="#011f7e" stroke="#011f7e"></path><path d="M458.9 0L417.1 0L433.1 89Z" fill="#011f7e" stroke="#011f7e"></path><path d="M688.5 143L670.5 69L561.7 128Z" fill="#001833" stroke="#001833"></path><path d="M566.7 58L586.7 0L458.9 0Z" fill="#001e4a" stroke="#001e4a"></path><path d="M780.2 163L688.5 143L706.4 182Z" fill="#001527" stroke="#001527"></path><path d="M900 361L831.2 354L900 449Z" fill="#001f55" stroke="#001f55"></path><path d="M788.2 429L831.2 354L772.4 425Z" fill="#001e4a" stroke="#001e4a"></path><path d="M647.5 600L774.4 600L737.4 542Z" fill="#00205f" stroke="#00205f"></path><path d="M737.4 542L825.2 499L772.4 425Z" fill="#0e1d87" stroke="#0e1d87"></path><path d="M258.5 57L173.6 101L185.6 164Z" fill="#001e4a" stroke="#001e4a"></path><path d="M185.6 164L67.8 255L181.6 239Z" fill="#00206a" stroke="#00206a"></path><path d="M774.4 600L825.2 499L737.4 542Z" fill="#001527" stroke="#001527"></path><path d="M0 332L52.8 390L91.8 322Z" fill="#001527" stroke="#001527"></path><path d="M91.8 322L52.8 390L156.6 370Z" fill="#001e4a" stroke="#001e4a"></path><path d="M829.2 256L707.4 264L809.2 295Z" fill="#00206a" stroke="#00206a"></path><path d="M829.2 256L780.2 163L703.4 233Z" fill="#002074" stroke="#002074"></path><path d="M52.8 390L53.8 445L135.6 418Z" fill="#001833" stroke="#001833"></path><path d="M900 291L829.2 256L809.2 295Z" fill="#00101c" stroke="#00101c"></path><path d="M61.8 119L67.8 255L185.6 164Z" fill="#002074" stroke="#002074"></path><path d="M417.1 0L319.3 0L323.3 105Z" fill="#002074" stroke="#002074"></path><path d="M258.5 57L143.6 0L173.6 101Z" fill="#00101c" stroke="#00101c"></path><path d="M670.5 69L586.7 0L566.7 58Z" fill="#001833" stroke="#001833"></path><path d="M319.3 0L272.5 0L258.5 57Z" fill="#011f7e" stroke="#011f7e"></path><path d="M53.8 445L63.8 564L179.6 495Z" fill="#011f7e" stroke="#011f7e"></path><path d="M774.4 600L817.2 600L825.2 499Z" fill="#001527" stroke="#001527"></path><path d="M788.2 50L727.4 49L780.2 163Z" fill="#001e4a" stroke="#001e4a"></path><path d="M780.2 163L727.4 49L688.5 143Z" fill="#011f7e" stroke="#011f7e"></path><path d="M670.5 69L665.5 0L586.7 0Z" fill="#002074" stroke="#002074"></path><path d="M727.4 49L665.5 0L670.5 69Z" fill="#011f7e" stroke="#011f7e"></path><path d="M52.8 390L0 410L53.8 445Z" fill="#002074" stroke="#002074"></path><path d="M53.8 445L0 515L63.8 564Z" fill="#00101c" stroke="#00101c"></path><path d="M0 332L0 406L52.8 390Z" fill="#002074" stroke="#002074"></path><path d="M0 406L0 410L52.8 390Z" fill="#00206a" stroke="#00206a"></path><path d="M0 259L0 332L67.8 255Z" fill="#001527" stroke="#001527"></path><path d="M67.8 255L0 332L91.8 322Z" fill="#001527" stroke="#001527"></path><path d="M900 449L831.2 354L788.2 429Z" fill="#002074" stroke="#002074"></path><path d="M831.2 354L900 291L809.2 295Z" fill="#001b3f" stroke="#001b3f"></path><path d="M829.2 256L900 193L780.2 163Z" fill="#0e1d87" stroke="#0e1d87"></path><path d="M900 449L788.2 429L825.2 499Z" fill="#011f7e" stroke="#011f7e"></path><path d="M900 532L900 449L825.2 499Z" fill="#011f7e" stroke="#011f7e"></path><path d="M0 600L45.8 600L63.8 564Z" fill="#001b3f" stroke="#001b3f"></path><path d="M63.8 564L45.8 600L162.6 600Z" fill="#001833" stroke="#001833"></path><path d="M900 361L900 291L831.2 354Z" fill="#001833" stroke="#001833"></path><path d="M0 152L0 259L67.8 255Z" fill="#011f7e" stroke="#011f7e"></path><path d="M61.8 119L185.6 164L173.6 101Z" fill="#011f7e" stroke="#011f7e"></path><path d="M92.8 46L61.8 119L173.6 101Z" fill="#00205f" stroke="#00205f"></path><path d="M0 410L0 515L53.8 445Z" fill="#001f55" stroke="#001f55"></path><path d="M900 123L788.2 50L780.2 163Z" fill="#0e1d87" stroke="#0e1d87"></path><path d="M727.4 49L775.4 0L665.5 0Z" fill="#0e1d87" stroke="#0e1d87"></path><path d="M817.2 600L900 532L825.2 499Z" fill="#001527" stroke="#001527"></path><path d="M272.5 0L143.6 0L258.5 57Z" fill="#0e1d87" stroke="#0e1d87"></path><path d="M900 291L900 193L829.2 256Z" fill="#00101c" stroke="#00101c"></path><path d="M143.6 0L92.8 46L173.6 101Z" fill="#00205f" stroke="#00205f"></path><path d="M61.8 119L0 152L67.8 255Z" fill="#001f55" stroke="#001f55"></path><path d="M0 515L0 600L63.8 564Z" fill="#001833" stroke="#001833"></path><path d="M817.2 600L900 600L900 532Z" fill="#0e1d87" stroke="#0e1d87"></path><path d="M829.2 0L775.4 0L788.2 50Z" fill="#011f7e" stroke="#011f7e"></path><path d="M788.2 50L775.4 0L727.4 49Z" fill="#001b3f" stroke="#001b3f"></path><path d="M0 100L0 152L61.8 119Z" fill="#001833" stroke="#001833"></path><path d="M900 193L900 123L780.2 163Z" fill="#001f55" stroke="#001f55"></path><path d="M143.6 0L93.8 0L92.8 46Z" fill="#001b3f" stroke="#001b3f"></path><path d="M92.8 46L0 100L61.8 119Z" fill="#011f7e" stroke="#011f7e"></path><path d="M0 0L0 100L92.8 46Z" fill="#011f7e" stroke="#011f7e"></path><path d="M900 58L829.2 0L788.2 50Z" fill="#001b3f" stroke="#001b3f"></path><path d="M900 123L900 58L788.2 50Z" fill="#00205f" stroke="#00205f"></path><path d="M93.8 0L0 0L92.8 46Z" fill="#011f7e" stroke="#011f7e"></path><path d="M900 58L900 0L829.2 0Z" fill="#001b3f" stroke="#001b3f"></path></g></svg>